# xmcd
#
# Track frame offsets: 
#        150
#        20890
#        37787
#        58515
#        70430
#        88285
#        108450
#        126857
#        150095
#        164410
#        187387
#        201917
#
# Disc length: 2944 seconds
#
# Revision: 2
# Processed by: cddbd v1.5.2PL0 Copyright (c) Steve Scherf et al.
# Submitted via: ExactAudioCopy v0.99pb4
#
DISCID=aa0b7e0c
DTITLE=Freakwater - Thinking Of You
DYEAR=2005
DGENRE=Country
TTITLE0=Right Brothers
TTITLE1=Cricket Versus Ant
TTITLE2=Bucket Of Oil
TTITLE3=So Strange
TTITLE4=Loserville
TTITLE5=Cathy Ann
TTITLE6=Double Clutch
TTITLE7=Sap
TTITLE8=Jack The Knife
TTITLE9=Jewel
TTITLE10=Upside Down
TTITLE11=Hi Ho Silver
EXTD=
EXTT0=
EXTT1=
EXTT2=
EXTT3=
EXTT4=
EXTT5=
EXTT6=
EXTT7=
EXTT8=
EXTT9=
EXTT10=
EXTT11=
PLAYORDER=
